HIERARCHY
ROOT Hips
{
	OFFSET 0.00000 0.00000 0.00000
	CHANNELS 6 Xposition Yposition Zposition Zrotation Yrotation Xrotation 
	JOINT LHipJoint
	{
		OFFSET 0 0 0
		CHANNELS 3 Zrotation Yrotation Xrotation
		JOINT LeftUpLeg
		{
			OFFSET 1.62964 -1.40469 0.78906
			CHANNELS 3 Zrotation Yrotation Xrotation
			JOINT LeftLeg
			{
				OFFSET 2.29640 -6.30932 0.00000
				CHANNELS 3 Zrotation Yrotation Xrotation
				JOINT LeftFoot
				{
					OFFSET 2.29451 -6.30412 0.00000
					CHANNELS 3 Zrotation Yrotation Xrotation
					JOINT LeftToeBase
					{
						OFFSET 0.03611 -0.09921 1.56387
						CHANNELS 3 Zrotation Yrotation Xrotation
						End Site
						{
							OFFSET 0.00000 -0.00000 0.80291
						}
					}
				}
			}
		}
	}
	JOINT RHipJoint
	{
		OFFSET 0 0 0
		CHANNELS 3 Zrotation Yrotation Xrotation
		JOINT RightUpLeg
		{
			OFFSET -1.73712 -1.40469 0.78906
			CHANNELS 3 Zrotation Yrotation Xrotation
			JOINT RightLeg
			{
				OFFSET -2.28137 -6.26801 0.00000
				CHANNELS 3 Zrotation Yrotation Xrotation
				JOINT RightFoot
				{
					OFFSET -2.28681 -6.28298 0.00000
					CHANNELS 3 Zrotation Yrotation Xrotation
					JOINT RightToeBase
					{
						OFFSET -0.15927 -0.43759 1.61103
						CHANNELS 3 Zrotation Yrotation Xrotation
						End Site
						{
							OFFSET -0.00000 -0.00000 0.84630
						}
					}
				}
			}
		}
	}
	JOINT LowerBack
	{
		OFFSET 0 0 0
		CHANNELS 3 Zrotation Yrotation Xrotation
		JOINT Spine
		{
			OFFSET -0.04227 2.04338 -0.00225
			CHANNELS 3 Zrotation Yrotation Xrotation
			JOINT Spine1
			{
				OFFSET -0.02148 2.04482 -0.04273
				CHANNELS 3 Zrotation Yrotation Xrotation
				JOINT Neck
				{
					OFFSET 0 0 0
					CHANNELS 3 Zrotation Yrotation Xrotation
					JOINT Neck1
					{
						OFFSET 0.09180 1.44629 0.19359
						CHANNELS 3 Zrotation Yrotation Xrotation
						JOINT Head
						{
							OFFSET 0.00887 1.40645 0.14750
							CHANNELS 3 Zrotation Yrotation Xrotation
							End Site
							{
								OFFSET -0.00669 1.50671 0.03707
							}
						}
					}
				}
				JOINT LeftShoulder
				{
					OFFSET 0 0 0
					CHANNELS 3 Zrotation Yrotation Xrotation
					JOINT LeftArm
					{
						OFFSET 2.17674 1.86763 -0.06520
						CHANNELS 3 Zrotation Yrotation Xrotation
						JOINT LeftForeArm
						{
							OFFSET 4.65776 -0.00000 0.00000
							CHANNELS 3 Zrotation Yrotation Xrotation
							JOINT LeftHand
							{
								OFFSET 3.55539 -0.00000 0.00000
								CHANNELS 3 Zrotation Yrotation Xrotation
								JOINT LeftFingerBase
								{
									OFFSET 0 0 0
									CHANNELS 3 Zrotation Yrotation Xrotation
									JOINT LeftHandIndex1
									{
										OFFSET 0.70726 -0.00000 0.00000
										CHANNELS 3 Zrotation Yrotation Xrotation
										End Site
										{
											OFFSET 0.57022 -0.00000 0.00000
										}
									}
								}
								JOINT LThumb
								{
									OFFSET 0 0 0
									CHANNELS 3 Zrotation Yrotation Xrotation
									End Site
									{
										OFFSET 0.57892 -0.00000 0.57892
									}
								}
							}
						}
					}
				}
				JOINT RightShoulder
				{
					OFFSET 0 0 0
					CHANNELS 3 Zrotation Yrotation Xrotation
					JOINT RightArm
					{
						OFFSET -2.80694 1.55459 -0.32496
						CHANNELS 3 Zrotation Yrotation Xrotation
						JOINT RightForeArm
						{
							OFFSET -4.71925 -0.00000 -0.00000
							CHANNELS 3 Zrotation Yrotation Xrotation
							JOINT RightHand
							{
								OFFSET -3.56990 -0.00000 0.00000
								CHANNELS 3 Zrotation Yrotation Xrotation
								JOINT RightFingerBase
								{
									OFFSET 0 0 0
									CHANNELS 3 Zrotation Yrotation Xrotation
									JOINT RightHandIndex1
									{
										OFFSET -0.50776 -0.00000 0.00000
										CHANNELS 3 Zrotation Yrotation Xrotation
										End Site
										{
											OFFSET -0.40937 -0.00000 0.00000
										}
									}
								}
								JOINT RThumb
								{
									OFFSET 0 0 0
									CHANNELS 3 Zrotation Yrotation Xrotation
									End Site
									{
										OFFSET -0.41562 -0.00000 0.41562
									}
								}
							}
						}
					}
				}
			}
		}
	}
}
MOTION
Frames: 16
Frame Time: 0.125
0.00 0.00 0.00 0 0 0 0 0 0 -21 0 0 0 0 0 0 0 0 0 0 0 0 0 0 21 0 0 0 0 0 0 0 0 0 0 0 0 0 0 0 0 0 0 0 0 0 0 -16 0 0 21 0 0 11 0 0 0 -8 0 0 0 0 0 0 0 0 0 0 0 0 0 0 0 0 0 0 0 0 8 0 0 0 0 0 0 0 0 0 0 0 0 0 0 0 0 0
0.00 0.00 0.00 -180.1980 -3.6679 -151.3670 0.0000 0.0000 0.0000 -15.6780 -18.6057 -23.3526 0.2516 3.2273 8.9123 0.2826 0.3208 -10.1630 4.6281 -12.9523 -39.1902 0.0000 0.0000 0.0000 14.3808 19.7825 -25.4544 -0.5073 -4.5658 12.6742 -1.3867 -1.8755 -22.9952 -4.3960 12.6695 -38.1437 -5.4213 -2.3958 -27.5492 -0.0398 -2.2924 -2.9353 2.1552 -1.6608 12.2053 -0.4572 -6.4375 4.3008 4.3498 -7.7764 -13.4400 1.7852 -3.8619 -4.5349 -0.0000 -0.0000 0.0000 -76.7975 5.1715 45.3354 16.7483 -26.5247 -3.9743 -0.0000 0.0000 -0.5571 20.9503 -11.1273 -4.2259 -7.1250 0.0000 -0.0000 -4.3264 18.1065 2.7755 -0.0000 -0.0000 0.0000 86.7291 -10.1177 25.7049 -23.2336 34.3433 -7.2697 0.0000 -0.0000 -7.6607 -9.3733 -50.7076 7.2802 7.1250 -0.0000 -0.0000 60.2527 -73.8985 -44.8904
0.00 0.00 0.00 -180.9710 -3.5929 -146.6240 0.0000 0.0000 0.0000 -11.3605 -24.4354 -37.8813 1.9186 8.6944 24.8438 0.7666 0.0983 -16.5852 4.2954 -12.5435 -37.6828 0.0000 0.0000 0.0000 10.7119 22.4404 -37.9107 -1.7074 -8.2279 23.4085 -1.8775 -1.9401 -26.6551 -4.7448 13.0905 -39.7081 -5.6169 -2.4559 -23.4960 0.0023 -2.4993 -3.2371 2.3841 -1.6837 9.7450 -0.5460 -7.6381 2.6626 5.0612 -9.1328 -14.7682 2.0362 -4.4725 -4.5938 -0.0000 -0.0000 0.0000 -66.9447 11.5296 56.5469 22.8470 -33.9211 -7.0527 -0.0000 0.0000 -4.0918 23.7647 -11.1085 -4.8491 -7.1250 0.0000 -0.0000 -2.3475 17.8773 1.5148 -0.0000 -0.0000 0.0000 82.0316 -16.1095 28.7947 -28.7360 39.7851 -10.5914 0.0000 -0.0000 -9.1156 -10.8776 -50.6329 8.4502 7.1250 -0.0000 -0.0000 59.0150 -74.4301 -44.3839
0.00 0.00 0.00 -179.8740 -3.6476 -143.8970 0.0000 0.0000 0.0000 -6.4892 -24.4454 -52.9410 5.3659 13.7843 42.3803 1.1830 -2.5925 -19.8633 4.9426 -13.3189 -40.5743 0.0000 0.0000 0.0000 9.8738 23.4185 -49.5457 -3.9265 -12.0620 35.9515 -2.6926 0.6443 -30.9205 -4.7036 13.0420 -39.5258 -4.1138 -1.6792 -20.1937 0.3855 -1.8664 -2.9093 2.2310 -1.2461 8.2634 -1.8806 -7.1576 0.4288 5.2071 -9.7503 -10.8665 2.2946 -5.1892 -3.2124 -0.0000 -0.0000 0.0000 -64.0126 12.3801 58.3035 25.0535 -36.2586 -8.3215 -0.0000 0.0000 -4.9788 22.5590 -12.1407 -4.9932 -7.1250 0.0000 -0.0000 -3.2366 16.8800 2.1608 -0.0000 -0.0000 0.0000 80.2102 -18.1134 27.9532 -32.0539 42.5901 -12.7773 0.0000 -0.0000 -10.4829 -10.8256 -49.7528 8.3039 7.1250 -0.0000 -0.0000 56.2317 -74.0067 -41.5698
0.00 0.00 0.00 -180.9560 -2.2491 -141.6200 0.0000 0.0000 0.0000 -6.0313 -22.9438 -66.9151 9.8827 17.3433 59.0955 1.4748 -4.4658 -21.9379 4.5534 -12.8625 -38.8559 0.0000 0.0000 0.0000 5.8120 23.9018 -63.5898 -8.4357 -16.4305 54.1171 -4.1167 4.5125 -37.5342 -4.1109 12.3066 -36.8253 -6.1100 -1.6340 -16.4306 -0.1271 -1.3953 -2.1293 3.0012 -0.9844 7.0608 -2.5893 -7.6529 -2.2323 5.8718 -10.2312 -6.6415 2.2916 -5.2837 -1.2481 -0.0000 -0.0000 0.0000 -63.8668 12.0592 54.2037 25.8268 -37.0372 -8.7831 -0.0000 0.0000 -4.8326 25.0366 -13.6609 -6.2950 -7.1250 0.0000 -0.0000 -1.6139 14.9675 1.1428 -0.0000 -0.0000 0.0000 79.0816 -17.2791 28.7337 -34.1070 44.1639 -14.1876 0.0000 -0.0000 -11.0250 -12.2326 -48.6954 9.2503 7.1250 -0.0000 -0.0000 51.8990 -73.9935 -37.9505
0.00 0.00 0.00 -181.2780 -4.8289 -141.7650 0.0000 0.0000 0.0000 -4.0688 -23.3951 -78.6014 15.6079 19.5311 77.0612 1.8235 -7.9992 -24.2115 1.0776 -6.5985 -18.5311 0.0000 0.0000 0.0000 4.9719 23.4714 -73.8635 -14.0354 -19.1247 72.3126 -5.5998 4.0507 -44.2471 -3.8733 11.9898 -35.6959 -5.4768 -1.4270 -11.1060 -0.3409 -1.3431 -1.0724 2.5155 -0.8362 5.2215 -2.4119 -7.1669 -5.0624 5.1539 -9.5441 -2.1231 1.7888 -4.7818 0.5713 0.0000 0.0000 0.0000 -67.7663 6.8230 43.4491 22.2668 -33.2773 -6.7317 -0.0000 -0.0000 0.0520 25.7121 -15.4171 -7.2948 -7.1250 0.0000 -0.0000 -1.2905 12.9650 0.9684 0.0000 0.0000 0.0000 80.6019 -14.5911 27.2049 -35.4490 45.1301 -15.1307 0.0000 -0.0000 -7.8371 -17.9118 -48.7376 13.6561 7.1250 -0.0000 -0.0000 47.2557 -76.2001 -36.1694
0.00 0.00 0.00 -183.7390 -28.4152 -147.6890 0.0000 0.0000 0.0000 -3.5853 -30.5900 -65.6189 12.9412 18.7608 68.9427 -0.6248 -18.2899 -6.0893 1.4364 7.5774 21.4378 0.0000 0.0000 0.0000 17.7802 8.5190 -62.4297 -13.3536 -18.9061 70.2204 -3.8483 -5.7286 -39.3394 -4.2038 12.4267 -37.2588 -5.5185 3.4652 -10.3380 -1.9165 5.0306 -2.9409 1.6942 2.4043 2.4014 5.3429 5.3940 -5.1508 -3.5650 6.6458 -6.0083 -1.9354 3.1388 -0.6980 0.0000 0.0000 0.0000 -63.6406 3.6230 58.0346 50.0701 -53.0237 -26.2302 -0.0000 -0.0000 2.9602 30.2637 -17.9417 -10.1899 -7.1250 0.0000 -0.0000 1.4439 9.4347 -1.1880 0.0000 0.0000 0.0000 70.8960 6.4610 51.3272 -60.4344 56.4246 -34.7028 0.0000 -0.0000 -7.9865 -12.2167 -48.7022 9.2390 7.1250 -0.0000 -0.0000 51.9323 -73.9911 -37.9756
0.00 0.00 0.00 -182.4040 -36.2941 -148.9950 0.0000 0.0000 0.0000 -3.9788 -29.0433 -56.6518 8.3143 16.3456 53.6871 -0.3448 -10.7757 7.2020 1.1200 6.7227 18.8963 0.0000 0.0000 0.0000 22.5283 2.5800 -54.1279 -8.5171 -16.4868 54.4047 -1.0826 -8.8723 -24.7400 -5.2445 13.6540 -41.8687 -4.7247 4.1774 -15.6544 -1.2298 6.1009 -3.1607 2.5212 2.8253 5.0034 4.5400 6.3867 -3.9831 -3.4914 8.0647 -7.0098 -1.8148 3.8721 -1.1819 -0.0000 0.0000 0.0000 -63.4432 1.6741 60.6618 51.2048 -53.4700 -27.1393 -0.0000 -0.0000 1.3900 30.1579 -14.1984 -8.1109 -7.1250 0.0000 -0.0000 1.8138 13.6754 -1.3343 -0.0000 0.0000 0.0000 68.2304 5.9069 49.0268 -59.3739 56.1408 -33.8207 0.0000 -0.0000 -9.2356 -7.2549 -44.3515 5.0855 7.1250 -0.0000 -0.0000 45.5711 -69.5920 -28.8156
0.00 0.00 0.00 -182.5190 -43.5138 -148.5250 0.0000 0.0000 0.0000 -5.2401 -27.1574 -49.5224 4.2888 12.5350 37.6520 1.3243 -2.4821 22.7596 0.4833 4.4578 12.3684 0.0000 0.0000 0.0000 23.2668 0.7817 -46.7014 -4.6260 -12.9498 39.1808 0.5301 -13.6408 -10.1817 -5.5009 13.9266 -42.9441 -5.2786 3.7773 -20.5564 -0.8197 5.8071 -3.5383 3.5802 2.5359 7.1438 4.0673 6.7665 -2.6868 -3.2124 8.6834 -7.2812 -1.7036 4.2116 -1.4955 -0.0000 0.0000 0.0000 -65.7886 0.4579 60.5075 49.3799 -52.7423 -25.6797 -0.0000 -0.0000 1.2469 30.6423 -18.6851 -10.7460 -7.1250 0.0000 -0.0000 1.5910 8.5278 -1.3380 -0.0000 0.0000 0.0000 69.6433 3.5353 45.1378 -55.5863 55.0143 -30.6958 0.0000 -0.0000 -8.3670 -7.8000 -45.0963 5.5417 7.1250 -0.0000 -0.0000 46.6300 -70.2622 -30.2265
0.00 0.00 0.00 -182.9660 -51.6930 -148.3990 0.0000 0.0000 0.0000 -8.0148 -24.2652 -41.3191 1.1278 6.7453 18.9630 4.4805 10.9594 38.5611 0.1878 -2.7907 -7.6967 0.0000 0.0000 0.0000 21.3247 4.4076 -35.3725 -1.5099 -7.7604 21.9887 1.7333 -25.6004 3.4829 -5.4513 13.8746 -42.7376 -4.8370 3.0020 -24.2941 -0.7635 4.8455 -3.5044 3.4039 1.9656 9.2794 3.5044 6.7700 -1.6504 -2.7486 8.7790 -7.5019 -1.5187 4.2813 -1.7854 0.0000 -0.0000 0.0000 -68.3915 -0.8691 59.9978 46.4400 -51.4547 -23.3596 -0.0000 -0.0000 0.0202 30.9436 -18.6327 -10.8435 -7.1250 0.0000 -0.0000 1.7914 8.5273 -1.5067 0.0000 -0.0000 0.0000 72.2214 1.4803 42.8657 -50.6523 53.2552 -26.6960 0.0000 -0.0000 -8.7676 -13.8598 -47.0255 10.2329 7.1250 -0.0000 -0.0000 45.6552 -73.6282 -32.5930
0.00 0.00 0.00 -197.9670 -78.6223 -130.5430 0.0000 0.0000 0.0000 -15.6522 -19.7895 -41.1790 0.4630 4.3646 12.1046 1.6366 12.4902 23.2525 5.2836 -13.6962 -42.0338 0.0000 0.0000 0.0000 18.6083 7.1453 -28.9360 -0.1916 -2.8187 7.7745 0.6818 -24.3369 12.1241 -3.2844 11.1418 -32.7594 -2.7407 -1.1351 -32.2922 -0.0505 -1.2143 -5.2002 0.8996 -0.9462 10.9380 1.6713 7.1080 1.4339 -1.1624 9.4544 -6.4844 -0.8483 4.6788 -2.1374 -0.0000 -0.0000 0.0000 -75.4568 -2.1908 61.7794 41.9850 -49.2029 -19.9292 -0.0000 0.0000 -1.8836 28.2463 -21.4570 -11.1183 -7.1250 0.0000 -0.0000 -0.2964 5.9349 0.2642 -0.0000 -0.0000 0.0000 76.0093 -8.0503 41.4302 -45.8408 51.1738 -22.8919 0.0000 -0.0000 -4.8641 -12.0855 -45.0066 8.6104 7.1250 -0.0000 -0.0000 42.2982 -71.6713 -28.3117
0.00 0.00 0.00 -357.2650 -11.7515 27.7153 0.0000 0.0000 0.0000 -14.9681 -16.4668 -31.9668 0.6154 5.0206 13.9673 1.0530 19.0693 21.2408 4.1499 -12.3572 -37.0077 0.0000 0.0000 0.0000 10.4903 17.1842 -32.3281 -0.5178 -4.6121 12.8054 -0.2260 -13.0679 11.8163 -3.6682 11.7053 -34.6971 -5.3738 -3.1258 -25.8749 -0.6564 -2.6055 -5.0550 1.4922 -1.3904 8.9293 -3.2342 2.8117 1.7235 3.4458 3.8657 -7.3290 1.5574 1.9051 -2.7854 0.0000 0.0000 0.0000 -57.6743 -4.0670 29.5103 38.5573 -47.1916 -17.3733 -0.0000 -0.0000 1.7695 32.9735 -14.5250 -9.2415 -7.1250 0.0000 -0.0000 3.6597 12.8437 -2.7603 0.0000 0.0000 0.0000 67.3940 -1.3300 33.3093 -38.8700 47.3860 -17.6031 0.0000 -0.0000 -6.7910 -0.1675 -48.3007 0.1251 7.1250 -0.0000 -0.0000 60.3930 -69.5174 -40.1344
0.00 0.00 0.00 -357.7920 -5.4077 28.0654 0.0000 0.0000 0.0000 -15.9755 -14.9886 -35.3573 1.8048 8.4472 24.0808 0.8958 9.6476 17.1918 5.4975 -13.9231 -42.9301 0.0000 0.0000 0.0000 12.7762 16.1016 -36.5805 -1.5630 -7.8895 22.3790 -0.2070 -8.4235 9.3619 -2.3959 9.6461 -27.8380 -5.2195 -2.7422 -25.2347 -0.7706 -2.1207 -4.2407 1.4409 -1.1633 9.4762 -3.9678 1.0972 2.0741 4.3660 1.6827 -10.9150 2.1042 0.8051 -4.0401 -0.0000 0.0000 0.0000 -55.7678 -2.7099 30.6898 39.7787 -47.9382 -18.2747 -0.0000 -0.0000 0.4385 32.1726 -9.3538 -5.8378 -7.1250 0.0000 -0.0000 3.7023 18.9802 -2.3017 -0.0000 0.0000 0.0000 66.3862 1.9420 32.1985 -40.7909 48.5315 -19.0298 0.0000 -0.0000 -7.0168 0.5783 -49.7066 -0.4411 7.1250 -0.0000 -0.0000 64.3106 -69.9195 -43.8917
0.00 0.00 0.00 -357.1240 -2.0334 27.1711 0.0000 0.0000 0.0000 -16.7315 -16.1091 -39.4487 4.4151 12.6932 38.2305 0.0490 -1.6732 -3.9349 6.8684 -15.2201 -48.3749 0.0000 0.0000 0.0000 12.3209 16.7247 -41.3417 -4.5242 -12.8271 38.7247 -0.8163 3.3028 -16.2750 -4.4811 12.7745 -38.5302 -6.5285 -2.5724 -22.6278 -1.1593 -1.6864 -3.6010 1.9522 -0.9864 8.8180 -2.9527 0.0936 2.7566 4.0573 0.4517 -15.0407 1.7253 0.1336 -4.9732 -0.0000 -0.0000 0.0000 -55.6613 -2.5716 31.9568 39.2272 -47.6053 -17.8664 -0.0000 0.0000 -0.2713 34.3372 -14.6398 -9.7955 -7.1250 0.0000 -0.0000 4.5489 12.4665 -3.4709 -0.0000 -0.0000 0.0000 66.7439 4.6188 31.7470 -39.9027 48.0122 -18.3669 0.0000 -0.0000 -6.7607 3.2113 -50.3137 -2.4723 7.1250 -0.0000 -0.0000 67.6084 -69.2831 -45.9774
0.00 0.00 0.00 -358.3190 11.3954 26.6639 0.0000 0.0000 0.0000 -9.1425 -24.9899 -52.1556 11.1404 18.0031 63.2368 1.3205 -14.8825 -21.6121 0.9196 -6.1098 -17.1032 0.0000 0.0000 0.0000 15.3336 19.3805 -48.6716 -9.6883 -17.2308 58.4413 -4.8899 -5.8930 -44.0570 -4.0360 12.2082 -36.4724 -6.4887 -0.7991 -15.4306 -2.2486 0.2900 -0.5446 1.3240 -0.0538 8.0820 -0.3180 -4.2423 2.0602 7.1825 -4.3563 -24.1258 2.7181 -2.6628 -7.5510 0.0000 0.0000 0.0000 -79.7147 -1.4978 25.1352 15.3284 -24.6016 -3.3615 -0.0000 0.0000 -0.2776 30.2366 -15.0796 -8.6226 -7.1250 0.0000 -0.0000 1.7693 12.6650 -1.3390 0.0000 0.0000 0.0000 89.7489 5.4926 23.8446 -17.1918 27.1099 -4.1744 0.0000 0.0000 11.6339 -14.1043 -50.1814 10.9231 7.1250 -0.0000 -0.0000 55.2753 -75.4587 -42.2220
0.00 0.00 0.00 -358.8000 7.6212 27.9888 0.0000 0.0000 0.0000 -12.4283 -24.7037 -33.4608 2.7480 10.2754 29.8733 0.5628 -4.0274 -13.3737 4.1759 -12.3908 -37.1290 0.0000 0.0000 0.0000 17.5957 12.7593 -34.1023 -2.1360 -9.1438 26.2462 -1.7236 -5.2671 -27.1628 -4.1608 12.3714 -37.0588 -5.3355 -0.9882 -21.2143 -1.7642 0.1553 -1.9812 1.1526 -0.0969 9.7131 -1.2916 -3.5328 1.9871 6.5954 -3.7278 -21.0918 2.5614 -2.2081 -6.5592 0.0000 0.0000 0.0000 -86.6226 -1.6263 26.1301 13.2550 -21.6597 -2.5466 -0.0000 0.0000 -2.4861 27.5341 -13.3800 -6.8789 -7.1250 0.0000 -0.0000 0.1140 14.9638 -0.0807 0.0000 0.0000 0.0000 90.7385 -3.0614 7.2535 -11.0377 18.3460 -1.7878 0.0000 0.0000 9.5871 -11.0643 -50.5436 8.5858 7.1250 -0.0000 -0.0000 58.5965 -74.4615 -44.0559
